<svg width="1380" height="189" viewBox="0 0 1380 189" fill="none" xmlns="http://www.w3.org/2000/svg">
<path d="M134.122 185.376V187.94L124.866 183.841C84.6894 165.98 44.5124 148.128 4.33546 130.285C3.65893 130.088 3.07703 129.65 2.6981 129.054C2.31916 128.458 2.16903 127.744 2.27565 127.045C2.40157 122.134 2.3566 117.214 2.27565 112.304C2.19174 111.788 2.29426 111.259 2.56473 110.812C2.8352 110.365 3.25583 110.03 3.7508 109.866C46.8241 90.7597 89.8734 71.6258 132.899 52.4648C133.295 52.3165 133.701 52.1929 134.113 52.0947C134.113 60.7063 134.158 69.0652 134.032 77.424C134.032 78.074 132.998 78.9857 132.233 79.3106C118.123 85.3947 103.995 91.4427 89.8494 97.4546L39.6402 118.884C39.0106 119.155 38.3899 119.453 37.3645 119.922C38.3539 120.383 39.0376 120.744 39.7391 121.042C70.4055 134.137 101.078 147.198 131.756 160.227C133.555 161.003 134.212 161.915 134.176 163.919C134.023 171.059 134.122 178.281 134.122 185.376Z" fill="white"/>
<path d="M297.518 183.553V185.729H261.665V182.858C261.665 151.68 261.665 120.501 261.611 89.3134C261.561 85.8667 261.163 82.434 260.423 79.0679C259.362 73.9407 255.926 70.7452 250.835 70.1674C247.204 69.722 243.525 69.8714 239.942 70.6098C233.844 71.9548 230.264 76.405 228.833 82.3446C227.949 85.9977 227.496 89.7425 227.484 93.5018C227.376 123.29 227.43 153.079 227.43 182.867V185.738H191.676V45.8221H225.856V62.4314C226.477 61.6371 226.756 61.3934 226.891 61.1045C234.887 47.3205 247.345 41.9766 262.636 42.0398C267.852 41.9709 273.035 42.8675 277.927 44.6847C288.388 48.7558 294.118 56.7626 296.052 67.5226C296.936 72.1957 297.406 76.9383 297.455 81.6947C297.563 115.654 297.518 149.604 297.518 183.553Z" fill="white"/>
<path d="M546.707 76.1278C546.653 76.3876 546.575 76.6415 546.473 76.8861C543.388 76.7416 540.347 76.543 537.298 76.4708C532.311 76.2241 527.333 77.1225 522.744 79.0976C514.451 82.8709 510.152 89.4875 509.252 98.4602C509.144 99.5976 509.171 100.762 509.171 101.908V185.723H473.516V45.8608H507.597V64.1582L508.047 64.2575C508.425 63.6437 508.766 62.9938 509.189 62.4522C511.492 59.3018 513.687 56.016 516.169 53.0552C523.707 44.2089 533.439 41.0766 544.791 42.2772C545.969 42.4036 546.788 42.5751 546.779 44.0826C546.716 54.7794 546.725 65.4491 546.707 76.1278Z" fill="white"/>
<path d="M647.995 76.9195C646.017 76.8202 644.218 76.6035 642.419 76.6487C638.389 76.748 634.26 76.5133 630.33 77.2354C617.557 79.6004 610.397 88.4467 610.379 101.491C610.343 128.571 610.343 155.676 610.379 182.804V185.792H574.688V45.822H608.796V64.0382L609.246 64.2368C609.579 63.7493 609.956 63.2799 610.244 62.7564C613.131 57.6787 616.85 53.1256 621.245 49.2883C628.558 42.8161 637.247 41.3898 646.556 42.3918C647.078 42.446 647.932 43.2403 647.941 43.7007C648.013 54.6683 647.995 65.6359 647.995 76.9195Z" fill="white"/>
<path d="M774.006 159.626C769.086 175.179 757.95 183.781 742.335 186.932C738.306 187.744 734.24 188.187 730.129 188.8H717.276C712.778 188.196 708.191 187.699 703.685 186.941C701.126 186.478 698.609 185.811 696.156 184.946C683.059 180.487 675.684 171.162 673.714 157.522C672.895 151.799 672.733 145.986 672.266 140.046H704.836C704.836 140.949 704.782 141.852 704.836 142.755C704.868 145.436 705.088 148.111 705.493 150.761C707.723 161.296 716.385 166.621 727.773 164.681C738.567 162.875 744.152 153.849 740.887 143.368C740.252 141.257 739.021 139.376 737.343 137.952C734.34 135.602 731.036 133.665 727.521 132.193C719.219 128.88 710.719 126.055 702.335 122.932C699.614 121.918 696.96 120.726 694.393 119.366C678.742 111.016 672.329 98.0266 673.894 80.2798C675.567 61.1519 686.154 49.1914 705.376 44.353C718.574 40.985 732.412 41.0595 745.574 44.5696C762.376 49.0108 771.973 61.3054 772.684 78.7904C772.801 81.6158 772.684 84.4592 772.684 87.5013H740.806C740.635 85.5876 740.482 83.6288 740.294 81.679C739.178 70.6211 733.943 64.528 719.695 67.236C713.003 68.5359 708.902 73.1396 708.137 79.0792C707.238 85.9757 709.936 91.6536 716.053 94.813C719.775 96.5703 723.609 98.078 727.53 99.3264C734.231 101.71 741.022 103.84 747.696 106.295C751.485 107.739 755.157 109.474 758.679 111.486C762.914 113.759 766.575 116.974 769.381 120.885C772.188 124.797 774.065 129.301 774.87 134.053C776.48 142.673 776.651 151.267 774.006 159.626Z" fill="white"/>
<path d="M923.59 185.872C912.112 185.872 900.635 185.872 889.157 185.926C888.419 186.012 887.673 185.849 887.036 185.464C886.399 185.078 885.908 184.491 885.64 183.795C876.574 166.139 867.45 148.503 858.269 130.889C857.891 130.158 857.477 129.445 856.92 128.416C854.221 131.936 851.937 135.511 849.085 138.535C845.119 142.741 843.913 147.408 844.147 153.122C844.561 163.052 844.264 173.09 844.264 183.073V185.718H808.645V0H844.264V97.7155L844.741 97.8509C845.227 97.219 845.739 96.6052 846.189 95.9462C857.271 79.8243 868.346 63.7144 879.416 47.6165C879.779 46.9593 880.322 46.4193 880.979 46.0597C881.637 45.7 882.383 45.5356 883.131 45.5855C894.536 45.6758 905.933 45.6306 917.311 45.6306H920.253C919.443 46.768 918.975 47.436 918.454 48.095C906.095 65.0835 893.721 82.0629 881.332 99.0334C880.848 99.544 880.555 100.207 880.504 100.91C880.453 101.614 880.647 102.312 881.053 102.888C895.649 129.589 910.199 156.321 924.705 183.082C925.137 183.868 925.514 184.671 926.036 185.727C925.065 185.808 924.327 185.872 923.59 185.872Z" fill="white"/>
<path d="M1187.41 183.324V185.725H1151.68C1151.64 184.75 1151.56 183.793 1151.56 182.827C1151.56 151.658 1151.56 120.479 1151.5 89.3092C1151.45 85.8596 1151.06 82.4238 1150.32 79.0547C1149.25 73.9275 1145.82 70.7229 1140.72 70.1633C1137.02 69.6711 1133.26 69.8484 1129.62 70.6868C1121.61 72.7901 1118.77 79.2623 1117.75 86.7907C1117.44 89.2281 1117.3 91.6825 1117.31 94.1385C1117.31 123.698 1117.31 153.261 1117.31 182.827V185.716H1081.61V45.7999H1115.89V62.2287C1116.19 61.9181 1116.47 61.5863 1116.73 61.2357C1124.82 47.0365 1137.64 41.5663 1153.3 42.1079C1158.2 42.2546 1163.05 43.1245 1167.69 44.6896C1178.49 48.4176 1184.12 56.7945 1186.09 67.7351C1186.92 72.2613 1187.36 76.8525 1187.4 81.4558C1187.46 115.442 1187.41 149.392 1187.41 183.324Z" fill="white"/>
<path d="M1378.58 127.36C1378.67 127.953 1378.55 128.56 1378.24 129.072C1377.93 129.584 1377.44 129.969 1376.88 130.159C1334.02 149.169 1291.17 168.21 1248.32 187.281C1247.92 187.461 1247.49 187.587 1246.76 187.849C1246.76 179.183 1246.71 170.897 1246.85 162.574C1246.85 161.861 1247.94 160.868 1248.74 160.525C1265.81 153.159 1282.9 145.841 1300.01 138.572L1341.17 121.006C1341.86 120.717 1342.53 120.383 1343.6 119.886C1342.12 119.245 1340.99 118.731 1339.84 118.243C1309.59 105.323 1279.33 92.4205 1249.06 79.5362C1247.35 78.8051 1246.68 77.9656 1246.71 76.0248C1246.84 68.1263 1246.77 60.2278 1246.77 51.9863C1247.67 52.3474 1248.38 52.5821 1249.04 52.889C1291.55 71.7912 1334.05 90.6814 1376.55 109.559C1378 110.2 1378.64 110.914 1378.59 112.583C1378.46 117.53 1378.5 122.441 1378.58 127.36Z" fill="white"/>
<path d="M440.141 103.992C439.592 93.7103 438.504 83.5009 435.356 73.5714C430.049 57.0523 419.363 46.4909 402.075 43.3044C392.936 41.6822 383.602 41.4965 374.407 42.7538C357.721 44.9383 345.164 53.1798 338.175 68.8684C336.129 73.51 334.562 78.3495 333.498 83.3113C330.098 98.8826 329.828 114.689 330.908 130.522C331.519 139.549 332.608 148.575 335.315 157.268C340.298 173.291 350.3 183.943 367.157 187.21C370.593 187.878 374.074 188.293 377.537 188.817H391.281C392.252 188.664 393.206 188.447 394.186 188.366C413.975 186.687 427.98 177.199 434.708 157.99C435.512 155.751 436.197 153.47 436.759 151.157C440.438 135.613 440.977 119.834 440.141 103.992ZM402.974 148.44C402.371 151.608 401.259 154.657 399.682 157.467C394.204 167.144 380.649 167.757 374.038 158.83C370.44 154.019 369.208 148.359 368.641 142.645C367.813 133.717 367.535 124.735 366.887 113.497C367.615 105.174 368.389 94.631 369.531 84.1328C370.005 79.7469 371.729 75.5911 374.497 72.1632C380.991 64.0391 394.123 64.6168 399.286 73.6617C401.438 77.5426 402.876 81.7806 403.532 86.1729C406.68 106.917 406.824 127.732 402.974 148.44Z" fill="white"/>
<path d="M978.581 121.209H1048.34C1048.34 113.789 1048.61 106.576 1048.26 99.3998C1047.83 90.5806 1046.89 81.7885 1044.2 73.3032C1039.31 57.8674 1029.55 47.3962 1013.51 43.7313C1002.48 41.2801 991.043 41.3171 980.029 43.8397C967.67 46.5477 958.081 53.363 951.686 64.3938C948.19 70.4538 945.784 77.0845 944.58 83.982C941.774 99.6526 941.693 115.45 942.547 131.283C942.97 139.019 943.447 146.755 945.543 154.292C950.418 171.831 960.996 183.467 979.21 187.186C982.808 187.917 986.406 188.269 990.058 188.793H1001.54L1008.33 187.89C1026.46 185.407 1038.4 175.577 1043.63 157.84C1044.21 156.012 1044.67 154.148 1045.01 152.261C1045.69 147.829 1046.21 143.379 1046.81 138.82H1014.42C1014.24 140.03 1014.08 141.086 1013.91 142.142C1013.01 147.693 1011.86 153.182 1008.9 158.065C1003.92 166.298 991.866 167.489 985.336 160.466C982.547 157.451 981.036 153.786 979.939 149.914C977.33 140.671 977.879 131.21 978.059 121.768C978.077 121.651 978.275 121.543 978.581 121.209ZM982.781 71.4979C986.514 65.495 992.235 63.4911 998.972 64.3486C1005.2 65.143 1009.17 68.7266 1011.28 74.6302C1013.88 81.9239 1013.84 89.5335 1014.43 97.3598H977.879C977.762 88.3149 977.852 79.4325 982.781 71.4979Z" fill="white"/>
</svg>
